<svg xmlns="http://www.w3.org/2000/svg" xmlns:xlink="http://www.w3.org/1999/xlink" width="256" height="256" enable-background="new" version="1.0"><title>Yaru Icon Theme Template</title><defs><linearGradient id="linearGradient1694" x1="38.31" x2="264" y1="270.69" y2="268" gradientTransform="rotate(90 132.25 151.25)" gradientUnits="userSpaceOnUse"><stop offset="0" stop-color="#4d4d4d"/><stop offset="1" stop-color="#4d4d4d"/></linearGradient><filter id="filter58449" width="1.096" height="1.096" x="-.048" y="-.048" color-interpolation-filters="sRGB"><feGaussianBlur stdDeviation="4.48"/></filter><filter id="filter58492" width="1.024" height="1.024" x="-.012" y="-.012" color-interpolation-filters="sRGB"><feGaussianBlur stdDeviation="1.12"/></filter><clipPath><path fill="#4d4d4d" d="m115.03 44c-72.649 0-83.031 10.357-83.031 82.938v58.125c0 72.581 10.383 82.938 83.031 82.938h36.969v-224z"/></clipPath><linearGradient id="linearGradient943" x1="216" x2="216" y1="28" y2="284" gradientTransform="matrix(1.1667 0 0 1.2857 -49.833 -29.571)" gradientUnits="userSpaceOnUse"><stop offset="0" stop-color="#d4279f"/><stop offset="1" stop-color="#fa3da3"/></linearGradient><linearGradient id="linearGradient1074" x1="152" x2="137.5" y1="156" y2="156" gradientTransform="matrix(.81034 0 0 1 16.078 15)" gradientUnits="userSpaceOnUse"><stop offset="0" stop-opacity="0"/><stop offset="1" stop-opacity=".156"/></linearGradient></defs><metadata/><g><g display="none" transform="translate(0,-44)"><text id="context" x="19.007" y="-8.255" fill="#000" display="inline" enable-background="new" font-family="'DejaVu Sans'" xml:space="preserve" style="line-height:0%"><tspan x="19.007" y="-8.255" font-family="'DejaVu Sans'" font-size="18" style="line-height:1.25">apps</tspan></text><text id="icon-name" x="146.488" y="-8.255" fill="#000" display="inline" enable-background="new" font-family="'DejaVu Sans'" font-weight="bold" xml:space="preserve" style="line-height:0%"><tspan x="146.488" y="-8.255" font-family="'DejaVu Sans'" font-size="18" font-weight="bold" style="line-height:1.25">calculator-app</tspan></text><g fill="#cdcdcd"><rect width="16" height="16" x="320" y="236" display="inline" enable-background="accumulate"/><rect width="24" height="24" x="320" y="188" display="inline" enable-background="accumulate"/><rect width="32" height="32" x="320" y="132" display="inline" enable-background="accumulate"/><rect width="48" height="48" x="320" y="60" display="inline" enable-background="accumulate"/><rect width="256" height="256" x="24" y="28" display="inline" enable-background="accumulate"/></g></g><g transform="translate(0,-44)"><g><path d="m200.57 60c35.297 0 39.095 3.6254 38.922 38.994v73.006 73.006c0.17299 35.368-3.6249 38.994-38.922 38.994h-146.16c-35.297 0-38.922-3.625-38.922-38.994v-73.006-73.006c0-35.369 3.6249-38.994 38.922-38.994z" color="#000" enable-background="accumulate" filter="url(#filter58492)" opacity=".1"/><path d="m200.57 60c35.297 0 39.095 3.6254 38.922 38.994v73.006 73.006c0.17299 35.368-3.6249 38.994-38.922 38.994h-146.16c-35.297 0-38.922-3.625-38.922-38.994v-73.006-73.006c0-35.369 3.6249-38.994 38.922-38.994z" color="#000" enable-background="accumulate" filter="url(#filter58449)" opacity=".2"/><path fill="url(#linearGradient1694)" d="m54.416 59c-35.297 0-38.922 3.6256-38.922 38.994v73.006 73.006c0 35.369 3.6252 38.994 38.922 38.994h73.084v-224zm162.87 0.56836c19.516 1.8801 22.127 9.5141 22.203 37.174 0.0557-27.664-2.6408-35.295-22.203-37.174zm22.203 185.69c-0.0759 27.66-2.6872 35.294-22.203 37.174 19.562-1.8785 22.259-9.5094 22.203-37.174z" color="#000" enable-background="accumulate"/></g><path fill="url(#linearGradient943)" d="m127.5 59v224h73.078c35.297 0 38.922-3.6256 38.922-38.994v-146.01c0-35.369-3.6252-38.994-38.922-38.994z" enable-background="new"/><rect width="11.75" height="222" x="127.5" y="61" fill="url(#linearGradient1074)" fill-rule="evenodd"/></g><g><path fill="#fff" d="m155.2 155v8h56v-8zm0 24v8h56v-8z" color="#000" enable-background="accumulate" transform="translate(0,-44)"/><path fill="#fff" d="m15.5 171v73.006c-0.17299 35.368 3.6251 38.994 38.922 38.994h73.078v-112z" enable-background="new" opacity=".1" transform="translate(0,-44)"/><g stroke-width="1" aria-label="x"><path fill="#f2f2f2" d="m94.579 131.3c-0.96667 1.0875-1.5708 1.8125-2.6583 3.2625-2.7792 3.625-4.2292 4.8333-5.6792 4.8333-1.6917 0-2.7792-1.5708-3.625-4.9542-0.3625-1.3292-0.3625-1.5708-0.48333-1.9333-3.0208-12.325-4.35-17.883-4.35-19.696 5.4375-9.425 9.6667-14.621 11.842-14.621 0.725 0 1.8125 0.3625 2.9 0.96667 1.45 0.84584 2.2958 1.0875 3.3833 1.0875 2.4167 0 4.1083-1.8125 4.1083-4.35 0-2.6583-2.0542-4.4708-4.9542-4.4708-5.3167 0-9.7875 4.35-18.246 17.279l-1.3292-6.6458c-1.6917-8.2167-3.0208-10.633-6.2833-10.633-2.7792 0-6.6458 0.96667-14.138 3.5042-0.725 0.24167-0.725 0.24167-1.3292 0.48333l0.48333 1.8125c4.7125-1.2083 5.5583-1.3292 6.7667-1.3292 3.0208 0 3.7458 1.0875 5.4375 8.3375l3.5042 14.862-9.9083 14.138c-2.5375 3.625-4.8333 5.8-6.1625 5.8-0.725 0-1.9333-0.3625-3.1417-1.0875-1.5708-0.84583-2.7792-1.2083-3.8667-1.2083-2.4167 0-4.1083 1.8125-4.1083 4.2292 0 3.1417 2.2958 5.075 6.0417 5.075 3.7458 0 5.1958-1.0875 11.238-8.3375 3.2625-3.9875 5.9208-7.6125 10.875-14.258l3.625 14.5c1.5708 6.2833 3.1417 8.0958 7.0083 8.0958 4.5917 0 7.7333-2.9 14.742-13.775z" transform="translate(0,-44)" style="font-feature-settings:normal;font-variant-caps:normal;font-variant-ligatures:normal;font-variant-numeric:normal"/></g><g stroke-width="1" aria-label="Ω"><path fill="#f2f2f2" d="m41.6 240.28h1.5808q0.1709 3.0334 1.7944 4.2297 1.6235 1.1963 5.1697 1.1963h11.664l-0.08545-2.8626q-6.7932-1.3672-12.39-7.5623t-5.5969-15.637q0-10.468 7.7759-17.859 7.8186-7.3914 20.38-7.3914 12.177 0 19.91 7.0068 7.7332 6.9641 7.7332 17.859 0 8.844-4.8279 15.039-4.7852 6.1524-12.988 8.5449l-0.42725 2.8626h11.877q4.0588 0 5.3406-1.5381 1.3245-1.5381 1.4099-3.8879h1.5808v13.373h-23.926l1.1108-12.903q11.023-3.4607 11.023-20.38 0-11.066-5.426-16.962-5.3833-5.896-12.646-5.896-7.7332 0-12.817 6.2805-5.0415 6.2378-5.0415 15.979 0 7.0496 2.2644 12.86 2.2644 5.7678 8.6731 8.1177l0.81177 12.903h-23.926z" transform="translate(0,-44)" style="font-feature-settings:normal;font-variant-caps:normal;font-variant-ligatures:normal;font-variant-numeric:normal"/></g></g><g><path fill="#fff" d="m54.422 59c-35.297 0-39.095 3.626-38.922 38.994v2c-0.17299-35.368 3.6252-38.994 38.922-38.994h146.16c35.297 0 38.922 3.6256 38.922 38.994v-2c0-35.369-3.6252-38.994-38.922-38.994z" color="#000" enable-background="accumulate" opacity=".3" transform="translate(0,-44)"/><path d="m54.427 283c-35.297 0-39.095-3.626-38.922-38.994v-2c-0.17299 35.368 3.6252 38.994 38.922 38.994h146.16c35.297 0 38.922-3.6256 38.922-38.994v2c0 35.369-3.6252 38.994-38.922 38.994z" color="#000" enable-background="accumulate" opacity=".2" transform="translate(0,-44)"/></g></g></svg>
